{"title":"Get Low 2009 720p.BRRip.x264.Feel-Free","uid":6152345,"size":1886023717,"categoryP":"video","categoryS":"hd___movies","magnet":"?xt=urn:btih:2b0aa0b10fe721276d714093da77723d8ded29cd&amp;dn=Get+Low+2009+720p.BRRip.x264.Feel-Free&amp;tr=udp%3A%2F%2Ftracker.openbittorrent.com%3A80&amp;tr=udp%3A%2F%2Fopen.demonii.com%3A1337&amp;tr=udp%3A%2F%2Ftracker.coppersurfer.tk%3A6969&amp;tr=udp%3A%2F%2Fexodus.desync.com%3A6969","seeders":2,"leechers":1,"uploader":"neon","files":-1,"time":1296917221,"description":"Genre:Drama | Mystery\nLanguage:English\n &lt;a href=&quot; http://www.imdb.com/title/tt1194263/&quot; rel=&quot;nofollow&quot; target=&quot;_NEW&quot;&gt; http://www.imdb.com/title/tt1194263/&lt;/a&gt;\nSource:1080p.BluRay.x264-TWiZTED\nSubtitles:Romana\n\n\nFormat : MPEG-4\nFormat profile : Base Media\nCodec ID : isom\nFile size : 1.75 GiB\nDuration : 1h 43mn\nOverall bit rate : 2 425 Kbps\n\n\nVideo\nFormat settings, CABAC : Yes\nFormat settings, ReFrames : 3 frames\nCodec ID : avc1\nCodec ID/Info : Advanced Video Coding\nDuration : 1h 43mn\nBit rate mode : Variable\nBit rate : 2 000 Kbps\nMaximum bit rate : 13.2 Mbps\nWidth : 1 280 pixels\nHeight : 536 pixels\nDisplay aspect ratio : 2.35:1\nFrame rate mode : Constant\nFrame rate : 23.976 fps\nColor space : YUV\nChroma subsampling : 4:2:0\nBit depth : 8 bits\nScan type : Progressive\nBits/(Pixel*Frame) : 0.122\nStream size : 1.44 GiB (82%)\nWriting library : x264\n\n\nAudio\nID : 2\nFormat : AAC\nFormat/Info : Advanced Audio Codec\nFormat version : Version 4\nFormat profile : LC\nFormat settings, SBR : No\nCodec ID : 40\nDuration : 1h 43mn\nBit rate mode : Variable\nBit rate : 425 Kbps\nMaximum bit rate : 549 Kbps\nChannel(s) : 6 channels\nChannel positions : Front: L C R, Side: L R, LFE\nSampling rate : 48.0 KHz\nStream size : 314 MiB (18%)\n\n\nPlot:\nA movie spun out of equal parts folk tale, fable and real-life legend about the mysterious, 1930s Tennessee hermit who famously threw his own rollicking funeral party... while he was still alive\n &lt;a href=&quot;\nhttp://rapidhdd.com/images/419817vlcsnap-00001.png&quot; rel=&quot;nofollow&quot; target=&quot;_NEW&quot;&gt;\nhttp://rapidhdd.com/images/419817vlcsnap-00001.png&lt;/a&gt; &lt;a href=&quot;\nhttp://www.rapidhdd.com/images/632862vlcsnap-00002.png&quot; rel=&quot;nofollow&quot; target=&quot;_NEW&quot;&gt;\nhttp://www.rapidhdd.com/images/632862vlcsnap-00002.png&lt;/a&gt; &lt;a href=&quot;\nhttp://www.rapidhdd.com/images/867206vlcsnap-00003.png&quot; rel=&quot;nofollow&quot; target=&quot;_NEW&quot;&gt;\nhttp://www.rapidhdd.com/images/867206vlcsnap-00003.png&lt;/a&gt; &lt;a href=&quot;\nhttp://www.rapidhdd.com/images/694052vlcsnap-00005.png&quot; rel=&quot;nofollow&quot; target=&quot;_NEW&quot;&gt;\nhttp://www.rapidhdd.com/images/694052vlcsnap-00005.png&lt;/a&gt; &lt;a href=&quot;\nhttp://www.rapidhdd.com/images/661977vlcsnap-00006.png&quot; rel=&quot;nofollow&quot; target=&quot;_NEW&quot;&gt;\nhttp://www.rapidhdd.com/images/661977vlcsnap-00006.png&lt;/a&gt; &lt;a href=&quot;\nhttp://www.rapidhdd.com/images/630728vlcsnap-00004.png&quot; rel=&quot;nofollow&quot; target=&quot;_NEW&quot;&gt;\nhttp://www.rapidhdd.com/images/630728vlcsnap-00004.png&lt;/a&gt;","torrent":{"xt":"urn:btih:2b0aa0b10fe721276d714093da77723d8ded29cd","amp;dn":"Get+Low+2009+720p.BRRip.x264.Feel-Free","amp;tr":["udp%3A%2F%2Ftracker.openbittorrent.com%3A80","udp%3A%2F%2Fopen.demonii.com%3A1337","udp%3A%2F%2Ftracker.coppersurfer.tk%3A6969","udp%3A%2F%2Fexodus.desync.com%3A6969"],"infoHash":"2b0aa0b10fe721276d714093da77723d8ded29cd","infoHashBuffer":{"type":"Buffer","data":[43,10,160,177,15,231,33,39,109,113,64,147,218,119,114,61,141,237,41,205]},"announce":[],"urlList":[]}}